<?xml version="1.0" encoding="utf-8"?>
<!-- Generator: Adobe Illustrator 24.3.0, SVG Export Plug-In . SVG Version: 6.00 Build 0)  -->
<svg version="1.1" id="Layer_1" xmlns="http://www.w3.org/2000/svg" xmlns:xlink="http://www.w3.org/1999/xlink" x="0px" y="0px"
	 viewBox="0 0 131.4 59.3" style="enable-background:new 0 0 131.4 59.3;" xml:space="preserve">
<style type="text/css">
	.st0{display:none;}
	.st1{display:inline;}
	.st2{font-family:'LeagueSpartan-Bold';}
	.st3{font-size:18px;}
	.st4{letter-spacing:-1;}
	.st5{font-family:'Casey-Bold';}
	.st6{font-size:24.2377px;}
	.st7{font-family:'Silom';}
	.st8{font-size:13px;}
	.st9{letter-spacing:1;}
</style>
<g id="Layer_1_1_" class="st0">
	<path class="st1" d="M108.5,11.9h-1.8c-1.6,0-2.9-0.6-2.9-2.4c0-1.7,1.3-2.4,2.8-2.4h8c3.7,0,5.6,1.5,7.2,4.8l4.2,8.4
		c1,2,1.4,3.4,1.4,5.6c0,1.9-0.5,3.5-1.4,5.3l-4.4,8.7c-1.7,3.4-3.8,4.5-7.6,4.5h-8c-1.2,0-2.4-0.7-2.4-2.4c0-1.7,1.2-2.4,2.4-2.4
		h2.3L108.5,11.9L108.5,11.9z M113.3,39.7h0.9c2,0,2.5-0.2,3.4-2l4.2-8.5c0.5-1.1,0.9-1.9,0.9-3.1c0-1.6-0.5-2.5-1.2-3.9l-4-8.1
		c-1-2.1-1.4-2-3.7-2h-0.6L113.3,39.7L113.3,39.7z"/>
	<path class="st1" d="M49.8,11.3v5.9l-13.2,9.5l13.2,9.7v5.8L31.5,29.3v-5.1L49.8,11.3z"/>
	<path class="st1" d="M72.4,29c0.2-1,0.3-1.9,0.3-2.6h5.9c0,1.9-0.3,3.6-1,5.4c-0.7,1.7-1.5,3.3-2.5,4.8l4.5,6.3h-7.3l-1.9-2.6
		c-0.9,1-2,1.8-3.5,2.3c-1.5,0.5-3.1,0.8-4.8,0.8c-2.1,0-3.9-0.3-5.3-0.9c-1.4-0.6-2.5-1.4-3.2-2.4s-1.3-2.1-1.6-3.2
		c-0.3-1.1-0.4-2.2-0.4-3.2c0-2,0.6-3.8,1.8-5.5s2.9-3.1,5.1-4.4L57.3,22c-0.5-0.7-0.9-1.3-1.2-1.9c-0.3-0.5-0.5-1.1-0.7-1.5
		c-0.2-0.5-0.3-0.9-0.3-1.4c-0.1-0.5-0.1-0.9-0.1-1.4c0-1.1,0.2-2.1,0.7-3s1-1.6,1.8-2.3s1.7-1.1,2.8-1.4c1.1-0.3,2.3-0.5,3.5-0.5
		c1.5,0,2.7,0.2,3.8,0.6c1.1,0.4,2,0.9,2.7,1.5c0.7,0.7,1.2,1.4,1.6,2.3s0.5,1.8,0.5,2.8c0,1.7-0.5,3.3-1.5,4.7
		c-1,1.4-2.5,2.8-4.5,4.2l5.1,7C71.9,30.8,72.1,30,72.4,29z M59,30.7c-0.5,0.9-0.7,1.9-0.7,2.9c0,0.5,0.1,1,0.3,1.6
		c0.2,0.5,0.5,1,0.9,1.5s0.9,0.8,1.5,1.1c0.6,0.3,1.3,0.4,2.1,0.4c1.8,0,3.3-0.7,4.5-2.2l-5.8-8.2C60.4,28.8,59.5,29.8,59,30.7z
		 M62.4,19.3l0.8,1.1l1.2-1.1c0.8-0.6,1.3-1.3,1.7-1.9c0.3-0.6,0.5-1.2,0.5-1.9c0-0.9-0.3-1.6-0.8-2.1c-0.6-0.5-1.3-0.7-2.2-0.7
		c-0.8,0-1.5,0.2-2.1,0.7c-0.6,0.5-0.8,1.2-0.8,2.1C60.7,16.5,61.3,17.8,62.4,19.3z"/>
	<path class="st1" d="M81.9,42.2v-6l13.2-9.5l-13.2-9.6v-5.8l18.3,12.8v5.1L81.9,42.2z"/>
	<g class="st1">
		<path d="M-3.4,13.4c1.8-3.2,5-5.6,10.5-6.2C8,7.1,8.7,7.1,9.5,7.1c8.1,0,15.6,4.5,16.6,10.2c0.7,4.3-3,6.2-4.1,6.4
			c-0.4,0.1-0.8,0-1,0c-0.5-0.2-0.5-0.6,0-1c0.5-0.4,0.9-1.4,0.9-2.7c0-1.1-0.3-2.5-1.1-3.9c-2-3.3-6.8-5.9-12.5-5.6
			c-0.6,0.1-1.1,0.1-1.6,0.2c0.5,0.2,1.1,0.5,1.7,0.9c2.2,1.2,6.5,4.6,9.3,11.2l4.7,11.1c0.7,1.8,1.5,3.1,2.4,4.1
			c1.3-0.6,3.2-1.2,4.8-1.2c0.7,0,1.4,0.1,2,0.5c1.4,0.8,1.6,2.6,1.3,3.8c-0.3,1.2-1.2,2.3-2.4,2.9c-0.8,0.4-1.9,0.6-3,0.6
			c-1.7,0-3.6-0.5-5.3-1.8c-2.5,1-5,1.4-7.4,1.4c-7,0-13.2-4.1-17.2-13.1C-4.2,27.5-5,23.8-5,20.5C-5,17.9-4.5,15.5-3.4,13.4z
			 M3.4,31c2.5,4.9,7.2,9.2,12.6,9.2c1,0,2-0.1,3-0.4c-0.4-0.6-1-1.6-1.3-2.4L12,23.8c-2.5-6-3.5-7.8-4.9-9.5
			c-1.1-1.2-2.2-2.2-3.2-2.9c-2.5,1.4-3.7,4.3-3.7,8C0.1,22.8,1.2,26.8,3.4,31z"/>
	</g>
</g>
<g id="Layer_2_1_">
	<path d="M220.4-21.3h-1.8c-1.6,0-2.9-0.6-2.9-2.4c0-1.7,1.3-2.4,2.8-2.4h8c3.7,0,5.6,1.5,7.2,4.8l4.2,8.4c1,2,1.4,3.4,1.4,5.6
		c0,1.9-0.5,3.5-1.4,5.3l-4.4,8.7c-1.7,3.4-3.8,4.5-7.6,4.5h-8c-1.2,0-2.4-0.7-2.4-2.4c0-1.7,1.1-2.4,2.4-2.4h2.3L220.4-21.3
		L220.4-21.3z M225.2,6.5h0.9c2,0,2.5-0.2,3.4-2l4.2-8.5c0.5-1.1,0.9-1.9,0.9-3.1c0-1.6-0.5-2.5-1.2-3.9l-4-8.1c-1-2.1-1.4-2-3.7-2
		h-0.6L225.2,6.5L225.2,6.5z"/>
	<path d="M190.6-54.7v3.9l-8.6,6.2l8.6,6.3v3.8l-11.9-8.4v-3.3L190.6-54.7z"/>
	<path d="M200.5-6.4c0.2-0.6,0.2-1.2,0.2-1.7h3.9c0,1.2-0.2,2.4-0.6,3.5c-0.4,1.1-1,2.2-1.6,3.1l2.9,4.1h-4.8L199.2,1
		c-0.6,0.7-1.3,1.2-2.3,1.5C196,2.9,195,3,193.9,3c-1.4,0-2.6-0.2-3.4-0.6c-0.9-0.4-1.6-0.9-2.1-1.6s-0.8-1.4-1-2.1
		C187.1-2,187-2.7,187-3.3c0-1.3,0.4-2.5,1.2-3.6c0.8-1,1.9-2,3.3-2.9l-0.8-1.2c-0.3-0.5-0.6-0.9-0.8-1.2c-0.2-0.4-0.3-0.7-0.4-1
		s-0.2-0.6-0.2-0.9c0-0.3-0.1-0.6-0.1-0.9c0-0.7,0.1-1.4,0.4-2c0.3-0.6,0.6-1.1,1.1-1.5c0.5-0.4,1.1-0.7,1.8-0.9s1.5-0.3,2.3-0.3
		c1,0,1.8,0.1,2.5,0.4c0.7,0.2,1.3,0.6,1.7,1c0.5,0.4,0.8,0.9,1,1.5c0.2,0.6,0.3,1.2,0.3,1.8c0,1.1-0.3,2.1-1,3s-1.6,1.8-2.9,2.8
		l3.4,4.5C200.2-5.2,200.4-5.7,200.5-6.4z M191.8-5.3c-0.3,0.6-0.5,1.2-0.5,1.9c0,0.3,0.1,0.7,0.2,1c0.1,0.4,0.3,0.7,0.6,1
		c0.3,0.3,0.6,0.5,1,0.7c0.4,0.2,0.8,0.3,1.3,0.3c1.2,0,2.2-0.5,2.9-1.4l-3.8-5.3C192.7-6.5,192.1-5.8,191.8-5.3z M194-12.7l0.5,0.8
		l0.8-0.7c0.5-0.4,0.9-0.8,1.1-1.2s0.3-0.8,0.3-1.2c0-0.6-0.2-1.1-0.6-1.4c-0.4-0.3-0.8-0.5-1.4-0.5c-0.5,0-1,0.2-1.4,0.5
		c-0.4,0.3-0.6,0.8-0.6,1.3C192.9-14.5,193.3-13.7,194-12.7z"/>
	<path d="M206.7,2.6v-3.9l6.2-6.2l-6.2-6.3v-3.8l8.6,8.4v3.3L206.7,2.6z"/>
	<g>
		<path d="M145.1-19.9c1.8-3.2,5-5.6,10.5-6.2c0.8-0.1,1.6-0.1,2.4-0.1c8.1,0,15.6,4.5,16.6,10.2c0.7,4.3-3,6.2-4.1,6.4
			c-0.4,0.1-0.8,0-1,0c-0.5-0.2-0.5-0.6,0-1c0.5-0.4,0.9-1.4,0.9-2.7c0-1.1-0.3-2.5-1.1-3.9c-2-3.3-6.8-5.9-12.5-5.6
			c-0.6,0.1-1.1,0.1-1.6,0.2c0.5,0.2,1.1,0.5,1.7,0.9c2.2,1.2,6.5,4.6,9.3,11.2l4.7,11.1c0.7,1.8,1.5,3.1,2.4,4.1
			c1.3-0.6,3.2-1.2,4.8-1.2c0.7,0,1.4,0.1,2,0.5c1.4,0.8,1.6,2.6,1.3,3.8c-0.3,1.2-1.2,2.3-2.4,2.9c-0.8,0.4-1.9,0.6-3,0.6
			c-1.7,0-3.7-0.5-5.3-1.8c-2.5,1-5,1.4-7.4,1.4c-7,0-13.2-4.1-17.2-13.1c-1.5-3.5-2.4-7.2-2.4-10.6
			C143.4-15.4,143.9-17.8,145.1-19.9z M151.8-2.3c2.5,4.9,7.2,9.2,12.6,9.2c1,0,2-0.1,3-0.4c-0.4-0.6-1-1.6-1.3-2.4l-5.6-13.5
			c-2.5-6.1-3.5-7.8-4.9-9.5c-1.1-1.2-2.2-2.2-3.2-2.9c-2.5,1.4-3.7,4.3-3.7,8C148.6-10.5,149.6-6.5,151.8-2.3z"/>
	</g>
	<path d="M185.5-17.6v3.9l-6.2,6.2l6.2,6.3v3.8l-8.6-8.4v-3.3L185.5-17.6z"/>
</g>
<text transform="matrix(1 0 0 1 2.3512 23.9596)"><tspan x="0" y="0" class="st2 st3 st4">WEB DESIGN</tspan><tspan x="0" y="15" class="st2 st3 st4">DEVELOPMENT</tspan></text>
<text transform="matrix(0.6403 -0.7257 0.7498 0.6616 114.0316 27.7012)" class="st5 st6 st4">&amp;</text>
<text transform="matrix(1 0 0 1 15.8539 54.7203)" class="st7 st8 st9">CONFERENCE</text>
<path d="M15,40.4v3.5l-6.2,5.6l6.2,5.6v3.4L6.4,51v-3L15,40.4z"/>
<path d="M114.2,58.5V55l6.2-5.6l-6.2-5.6v-3.4l8.6,7.5v3L114.2,58.5z"/>
</svg>
